<svg width="1600" height="1000" viewBox="0 0 1600 1000" fill="none" xmlns="http://www.w3.org/2000/svg">
  <defs>
    <linearGradient id="bg" x1="0" y1="0" x2="1" y2="1">
      <stop offset="0" stop-color="#0E1F4A"/>
      <stop offset="1" stop-color="#16306B"/>
    </linearGradient>
    <linearGradient id="card" x1="0" y1="0" x2="0" y2="1">
      <stop offset="0" stop-color="#F6FAFF" stop-opacity="0.96"/>
      <stop offset="1" stop-color="#DCE8FA" stop-opacity="0.92"/>
    </linearGradient>
  </defs>

  <rect width="1600" height="1000" fill="url(#bg)"/>

  <g opacity="0.22" stroke="#7FB1E2" stroke-width="1">
    <path d="M0 120H1600"/>
    <path d="M0 260H1600"/>
    <path d="M0 400H1600"/>
    <path d="M0 540H1600"/>
    <path d="M0 680H1600"/>
    <path d="M0 820H1600"/>
    <path d="M200 0V1000"/>
    <path d="M460 0V1000"/>
    <path d="M720 0V1000"/>
    <path d="M980 0V1000"/>
    <path d="M1240 0V1000"/>
    <path d="M1500 0V1000"/>
  </g>

  <g opacity="0.24">
    <rect x="930" y="170" width="510" height="620" rx="32" fill="url(#card)"/>
    <rect x="980" y="250" width="412" height="56" rx="12" fill="#7FB1E2" fill-opacity="0.45"/>
    <rect x="980" y="338" width="188" height="154" rx="16" fill="#6AA72A" fill-opacity="0.3"/>
    <rect x="1198" y="338" width="194" height="154" rx="16" fill="#4898D8" fill-opacity="0.3"/>
    <rect x="980" y="520" width="412" height="24" rx="10" fill="#2A55B8" fill-opacity="0.26"/>
    <rect x="980" y="560" width="412" height="24" rx="10" fill="#2A55B8" fill-opacity="0.2"/>
    <rect x="980" y="600" width="412" height="24" rx="10" fill="#2A55B8" fill-opacity="0.16"/>
  </g>

  <g opacity="0.22" fill="#E9B21E">
    <circle cx="1260" cy="88" r="8"/>
    <circle cx="1290" cy="88" r="8"/>
    <circle cx="1320" cy="88" r="8"/>
    <circle cx="1350" cy="88" r="8"/>
  </g>

  <g opacity="0.2" stroke="#8FC1EA" stroke-width="12" stroke-linecap="round" stroke-linejoin="round">
    <path d="M120 760C220 610 340 560 460 640C560 705 650 700 760 560"/>
    <path d="M700 560L760 560L760 618"/>
  </g>
</svg>
