<svg width="1400" height="1550" viewBox="0 0 1400 1550" fill="none" xmlns="http://www.w3.org/2000/svg">
  <defs>
    <linearGradient id="sky" x1="0" y1="0" x2="0" y2="1">
      <stop offset="0" stop-color="#6FC3FF"/>
      <stop offset="0.45" stop-color="#9AD4FF"/>
      <stop offset="1" stop-color="#FFD7A8"/>
    </linearGradient>
    <linearGradient id="water" x1="0" y1="0" x2="1" y2="1">
      <stop offset="0" stop-color="#2D76B8"/>
      <stop offset="1" stop-color="#1D4D83"/>
    </linearGradient>
    <linearGradient id="glassA" x1="0" y1="0" x2="0" y2="1">
      <stop offset="0" stop-color="#E7F5FF" stop-opacity="0.95"/>
      <stop offset="1" stop-color="#9FC9E9" stop-opacity="0.9"/>
    </linearGradient>
    <linearGradient id="glassB" x1="0" y1="0" x2="0" y2="1">
      <stop offset="0" stop-color="#CDEAFF" stop-opacity="0.95"/>
      <stop offset="1" stop-color="#7EAACB" stop-opacity="0.9"/>
    </linearGradient>
  </defs>

  <rect width="1400" height="1550" fill="url(#sky)"/>
  <ellipse cx="1200" cy="180" rx="120" ry="70" fill="#FFF0CC" opacity="0.65"/>

  <rect y="980" width="1400" height="570" fill="url(#water)"/>
  <path d="M0 1080C220 1040 330 1110 520 1075C760 1030 880 1105 1100 1068C1210 1048 1310 1055 1400 1085V1128H0V1080Z" fill="#4EA3D8" opacity="0.55"/>
  <path d="M0 1188C170 1150 330 1225 510 1180C740 1125 930 1220 1190 1170C1270 1155 1340 1160 1400 1178V1210H0V1188Z" fill="#78C1EA" opacity="0.45"/>

  <g opacity="0.95">
    <rect x="120" y="560" width="120" height="430" rx="12" fill="url(#glassB)"/>
    <rect x="260" y="490" width="150" height="500" rx="12" fill="url(#glassA)"/>
    <rect x="430" y="530" width="105" height="460" rx="10" fill="url(#glassB)"/>
    <rect x="560" y="430" width="180" height="560" rx="14" fill="url(#glassA)"/>
    <rect x="770" y="500" width="120" height="490" rx="10" fill="url(#glassB)"/>
    <rect x="910" y="450" width="145" height="540" rx="12" fill="url(#glassA)"/>
    <rect x="1080" y="600" width="110" height="390" rx="10" fill="url(#glassB)"/>
    <rect x="1210" y="520" width="110" height="470" rx="10" fill="url(#glassA)"/>
  </g>

  <g opacity="0.32" fill="#EAF6FF">
    <rect x="152" y="610" width="12" height="320"/>
    <rect x="182" y="610" width="12" height="320"/>
    <rect x="292" y="540" width="14" height="390"/>
    <rect x="326" y="540" width="14" height="390"/>
    <rect x="462" y="580" width="10" height="350"/>
    <rect x="590" y="470" width="14" height="430"/>
    <rect x="628" y="470" width="14" height="430"/>
    <rect x="672" y="470" width="14" height="430"/>
    <rect x="804" y="550" width="10" height="360"/>
    <rect x="946" y="500" width="12" height="410"/>
    <rect x="980" y="500" width="12" height="410"/>
    <rect x="1112" y="640" width="10" height="290"/>
    <rect x="1240" y="560" width="10" height="360"/>
  </g>

  <g opacity="0.45">
    <path d="M120 1010H1320" stroke="#CFE8FF" stroke-width="2"/>
    <path d="M120 1040H1320" stroke="#9FD0F2" stroke-width="2"/>
  </g>

  <g opacity="0.3" fill="#0E1F4A">
    <rect x="80" y="990" width="1280" height="30"/>
  </g>
</svg>
